Coordinates
nRows=14
nColumns=24

# SIMM Motion File Header:
name Coordinates
datacolumns 24
datarows 14
otherdata 1
range 1.62500000000000000000 1.63800000000000010000
endheader
time	pelvis_tx	pelvis_ty	pelvis_tz	pelvis_tilt	pelvis_list	pelvis_rotation	hip_flexion_r	hip_adduction_r	hip_rotation_r	knee_angle_r	ankle_angle_r	subtalar_angle_r	mtp_angle_r	hip_flexion_l	hip_adduction_l	hip_rotation_l	knee_angle_l	ankle_angle_l	subtalar_angle_l	mtp_angle_l	lumbar_extension	lumbar_bending	lumbar_rotation
      1.62500000000000000000	      0.61290599586985606000	      1.05079130700428600000	      0.00123021177476161440	      6.02513657326215490000	     -1.65592211613157230000	      0.35126138909035337000	     19.01870345002145500000	     -3.71059334685188120000	     -7.81897017578169700000	    -57.78197703414132700000	      2.25599867608235580000	      0.08305041451299716200	     -1.87135952390718650000	     -5.17617500292381120000	      1.64601540681994570000	      0.82179073251024271000	     -8.40495435008948990000	      5.49345012235985750000	      0.89986409817122526000	      5.17326631896823570000	    -15.78858809397715700000	     -0.40484802767631989000	     -6.59485452393136830000
      1.62600000000000010000	      0.61278846029327216000	      1.05075514779320580000	      0.00117056887835841800	      6.01457915129051910000	     -1.65418390604081770000	      0.35960892420916368000	     19.08921216913368100000	     -3.71202022556164210000	     -7.85809516822829220000	    -57.54006600429259800000	      2.24337527294478400000	      0.07760963539744250600	     -1.83764156443001440000	     -5.25213853959916750000	      1.64933092161307560000	      0.82880931386029755000	     -8.35624056186873960000	      5.52806107222836830000	      0.90583864327746144000	      5.16172242594499320000	    -15.78689962027485700000	     -0.39803968294723840000	     -6.60120631457087190000
      1.62700000000000000000	      0.61267092471668838000	      1.05071898858212580000	      0.00111092598195523480	      6.00402172931888510000	     -1.65244569595006350000	      0.36795645932797211000	     19.15972088824588900000	     -3.71344710427140300000	     -7.89722016067487860000	    -57.29815497444392500000	      2.23075186980721480000	      0.07216885628188905700	     -1.80392360495284950000	     -5.32810207627450620000	      1.65264643640620460000	      0.83582789521035084000	     -8.30752677364800010000	      5.56267202209687190000	      0.91181318838369629000	      5.15017853292175330000	    -15.78521114657255700000	     -0.39123133821815848000	     -6.60755810521037470000
      1.62800000000000010000	      0.61255350816725151000	      1.05068021307118940000	      0.00105277713787055870	      5.99357857736366920000	     -1.64964240588297060000	      0.37530960960685944000	     19.22813109215356800000	     -3.71600009724798010000	     -7.93687964647409850000	    -57.05162856306611000000	      2.21975441249936670000	      0.06802341427669773800	     -1.77431419288722970000	     -5.40445408218755490000	      1.65724662292932010000	      0.84235279867115731000	     -8.25718653683169100000	      5.57240233473996760000	      0.90468802366418521000	      5.17633082141873580000	    -15.78371710960236700000	     -0.38571732198371544000	     -6.61307074132730490000
      1.62900000000000000000	      0.61243613129353025000	      1.05064056546030130000	      0.00099512631122541072	      5.98317351541393010000	     -1.64648408915709290000	      0.38233129827243195000	     19.29584179099303400000	     -3.71892846164683450000	     -7.97671729672418730000	    -56.80356369117862400000	      2.20929893713477070000	      0.06430975130830232600	     -1.74607429662548990000	     -5.48093557784648680000	      1.66227503336243680000	      0.84871314283554344000	     -8.20630415048353080000	      5.57383910164111820000	      0.89319628900268722000	      5.21504850375599640000	    -15.78228788487621700000	     -0.38063474858082696000	     -6.61830365927003860000
      1.63000000000000010000	      0.61231881774304842000	      1.05060020064950880000	      0.00093782704936944800	      5.97278356822894010000	     -1.64312031601568930000	      0.38914057524217993000	     19.36301742850093900000	     -3.72206614111992980000	     -8.01670537069963450000	    -56.55434498220169100000	      2.19978666209935620000	      0.06131717215779059600	     -1.71949646767125630000	     -5.55747528783305270000	      1.66754302037265670000	      0.85495610587460713000	     -8.15517392979056940000	      5.57139165033189170000	      0.87958004546229762000	      5.25868089231746530000	    -15.78088719440470000000	     -0.37580150930100858000	     -6.62334909468207120000
      1.63100000000000000000	      0.61220169416228454000	      1.05055768423900430000	      0.00088158248188111466	      5.96243896533820910000	     -1.63914017362769800000	      0.39531261712443488000	     19.42858788201407100000	     -3.72583176581575600000	     -8.05714471585112870000	    -56.30166476195654500000	      2.19310398805155590000	      0.06048784446097810900	     -1.69790484063967020000	     -5.63418964080246010000	      1.67352973711419680000	      0.86084692553769049000	     -8.10330020606324020000	      5.55729154439129400000	      0.85959027528511145000	      5.31705739955183090000	    -15.77957210669708500000	     -0.37171627239042032000	     -6.62783208250198360000
      1.63200000000000010000	      0.61208493618190296000	      1.05051180636136720000	      0.00082667326919476846	      5.95200731479373160000	     -1.63466739478227810000	      0.40081091172136835000	     19.49210031171757900000	     -3.73005218180623420000	     -8.09831424582542250000	    -56.04433362989248500000	      2.19093651368985840000	      0.06308455801907000800	     -1.68311092733268590000	     -5.71080828567640440000	      1.68001984928514480000	      0.86621174621775743000	     -8.05147332059699930000	      5.54286742293473100000	      0.83862117332530806000	      5.36027810756600950000	    -15.77818327496427900000	     -0.36823571159836149000	     -6.63166737033507390000
      1.63300000000000000000	      0.61196817820152138000	      1.05046592848373010000	      0.00077176405650843615	      5.94157566424925680000	     -1.63019461593685830000	      0.40630920631829970000	     19.55561274142107200000	     -3.73427259779671240000	     -8.13948377579970920000	    -55.78700249782847500000	      2.18876903932816710000	      0.06568127157716589800	     -1.66831701402571400000	     -5.78742693055033100000	      1.68650996145609210000	      0.87157656689782237000	     -7.99964643513076900000	      5.52844330147817060000	      0.81765207136550799000	      5.40349881558015890000	    -15.77679444323147200000	     -0.36475515080630427000	     -6.63550265816816330000
      1.63400000000000010000	      0.61185171321190956000	      1.05041745358219770000	      0.00071777742360419183	      5.93095347604078690000	     -1.62555687814156460000	      0.41142237774595464000	     19.61788746286491400000	     -3.73858189499813460000	     -8.18118184212907450000	    -55.52653317601890100000	      2.18880786527593860000	      0.06993065313723875700	     -1.65686932262734520000	     -5.86373453708465500000	      1.69309960177792810000	      0.87646652726725449000	     -7.94847572831776720000	      5.52256797147912690000	      0.80047375966718359000	      5.42462261742878130000	    -15.77519471254692400000	     -0.36149383474338093000	     -6.63894118270799450000
      1.63500000000000000000	      0.61173554121306761000	      1.05036638165676990000	      0.00066471337048206716	      5.92014075016832560000	     -1.62075418139639750000	      0.41615042600432772000	     19.67892447604907200000	     -3.74298007341050050000	     -8.22340844481350610000	    -55.26292566446385000000	      2.19105299153319200000	      0.07583270269930063300	     -1.64876785313761310000	     -5.93973110527933910000	      1.69978877025065090000	      0.88088162732604736000	     -7.89796120015802220000	      5.52524143293767360000	      0.78708623823037460000	      5.42364951311168130000	    -15.77338408291063100000	     -0.35845176340959478000	     -6.64198294395456300000
      1.63600000000000010000	      0.61161936921422566000	      1.05031530973134220000	      0.00061164931735993079	      5.90932802429586260000	     -1.61595148465122910000	      0.42087847426270181000	     19.73996148923324500000	     -3.74737825182286690000	     -8.26563504749794650000	    -54.99931815290874200000	      2.19329811779044540000	      0.08173475226136382700	     -1.64066638364787900000	     -6.01572767347404010000	      1.70647793872337530000	      0.88529672738484122000	     -7.84744667199826470000	      5.52791489439622110000	      0.77369871679356250000	      5.42267640879458050000	    -15.77157345327433900000	     -0.35540969207580791000	     -6.64502470520113240000
      1.63700000000000000000	      0.61150386372803112000	      1.05025867303907970000	      0.00056063719279300227	      5.89798199727385160000	     -1.61098717249554890000	      0.42482907191359204000	     19.79873063799032100000	     -3.75163927659979230000	     -8.30887084288034220000	    -54.72930449477532000000	      2.19584580236565910000	      0.08777402295609358600	     -1.63360127163805010000	     -6.09085701697196220000	      1.71311913453228710000	      0.88847819939762085000	     -7.79891021116218400000	      5.55811869140234460000	      0.77336326037961989000	      5.36754613358678870000	    -15.76915198049327000000	     -0.35264391906648540000	     -6.64725166635736290000
      1.63800000000000010000	      0.61138835824183657000	      1.05020203634681720000	      0.00050962506822606834	      5.88663597025183540000	     -1.60602286033986700000	      0.42877966956448094000	     19.85749978674739700000	     -3.75590030137671780000	     -8.35210663826274850000	    -54.45929083664181300000	      2.19839348694087410000	      0.09381329365082506600	     -1.62653615962822260000	     -6.16598636046989770000	      1.71976033034120030000	      0.89165967141039759000	     -7.75037375032609880000	      5.58832248840855340000	      0.77302780396571491000	      5.31241585837882720000	    -15.76673050771219800000	     -0.34987814605716305000	     -6.64947862751359150000
